<svg viewBox="0 0 800 800" xmlns="http://www.w3.org/2000/svg"><path d="M601.8943662148583,449.3397106642812 L601.8290565713827,496.1187317809576 M601.8593414025906,506.83101858181607 L599.6203039476861,506.67522157012945 M599.6203039476861,506.67522157012945 L597.510700043071,506.21691047760794 M597.510700043071,506.21691047760794 L595.6532816732495,505.4827964543417 M595.6532816732495,505.4827964543417 L594.1560646138855,504.5156486161687 M594.1560646138855,504.5156486161687 L593.1060356486569,503.3717846071282 M593.1060356486569,503.3717846071282 L592.5641121453018,502.11777690365784 M592.5641121453018,502.11777690365784 L592.5616098991036,500.82655328699497 M592.5616098991036,500.82655328699497 L593.0984814247347,499.57315712475383 M593.0984814247347,499.57315712475383 L594.1433491158668,498.43037715823374 M594.1433491158668,498.43037715823374 L595.6353785075789,497.4645356853677 M595.6353785075789,497.4645356853677 L597.4878351327459,496.7316522865213 M597.4878351327459,496.7316522865213 L599.593130558135,496.274214995234 M599.593130558135,496.274214995234 L601.8290565713827,496.1187317809576 M601.9247854822543,460.0275850640751 L601.8593414025906,506.83101858181607 M601.8943662148583,449.3397106642812 L599.6534864451902,449.49483919728385 M599.6534864451902,449.49483919728385 L597.5435282089213,449.95123306277816 M597.5435282089213,449.95123306277816 L595.6869700596159,450.68244492144277 M595.6869700596159,450.68244492144277 L594.1916384881747,451.64608387774535 M594.1916384881747,451.64608387774535 L593.1444599770203,452.7862583460557 M593.1444599770203,452.7862583460557 L592.6064037808965,454.0367974459776 M592.6064037808965,454.0367974459776 L592.6089171329621,455.325078471082 M592.6089171329621,455.325078471082 L593.1520477372833,456.57622907186044 M593.1520477372833,456.57622907186044 L594.2044104291582,457.7174875087889 M594.2044104291582,457.7174875087889 L595.7049526968904,458.68243274408223 M595.7049526968904,458.68243274408223 L597.5664946174146,459.414875145457 M597.5664946174146,459.414875145457 L599.6807804595894,459.87214275188813 M599.6807804595894,459.87214275188813 L601.9247854822543,460.0275850640751 M663.5439379697536,414.14131722662853 L663.3430014516537,460.8395960633785 M663.5439379697536,414.14131722662853 L601.8943662148583,449.3397106642812 M663.3430014516537,460.8395960633785 L601.8290565713827,496.1187317809576 M712.3957812308621,432.7071184841322 L672.604794911543,455.52782376368947 M672.604794911543,455.52782376368947 L670.5347591525556,455.66093479840123 M670.5347591525556,455.66093479840123 L668.5709408943644,456.0536120725992 M668.5709408943644,456.0536120725992 L666.8116930706788,456.6862224626171 M666.8116930706788,456.6862224626171 L665.345165099165,457.5271222160286 M665.345165099165,457.5271222160286 L664.2448916810799,458.53423675114647 M664.2448916810799,458.53423675114647 L663.5661182492686,459.65714535720474 M663.5661182492686,459.65714535720474 L663.3430014516537,460.8395960633785 M601.8593414025906,506.83101858181607 L632.9054585961273,524.5970701434024 M441.0865071173039,565.0667307975148 L632.9054585961273,524.5970701434024 M512.2071718360924,455.52782156051273 L441.0865071173039,565.0667307975148 M512.2071718360924,455.52782156051273 L542.9485306846605,473.1194760328662 M542.9485306846605,473.1194760328662 L543.2158996059748,474.394481388695 M543.2158996059748,474.394481388695 L544.0098019550098,475.59567465183 M544.0098019550098,475.59567465183 L545.284243743872,476.6531716542704 M545.284243743872,476.6531716542704 L546.9652291617435,477.50541042534593 M546.9652291617435,477.50541042534593 L548.9550443987705,478.1027524740551 M548.9550443987705,478.1027524740551 L551.1379331794224,478.41038761723604 M551.1379331794224,478.41038761723604 L553.3868657774449,478.4103880667307 M553.3868657774449,478.4103880667307 L555.5709429114245,478.10275178256563 M555.5709429114245,478.10275178256563 L557.5630636842798,477.5054109093329 M557.5630636842798,477.5054109093329 L559.247340854895,476.6531720690485 M559.247340854895,476.6531720690485 L560.5258666349448,475.5956747900613 M560.5258666349448,475.5956747900613 L561.3244059207966,474.3944812504956 M561.3244059207966,474.3944812504956 L561.5967004305094,473.1194760328661 M561.5967004305094,473.1194760328661 L672.1651599458087,409.986498424188 M672.1651599458087,409.986498424188 L712.3957812308621,432.7071184841322 M633.0399987507649,477.75325658668146 L632.9054585961273,524.5970701434024 M601.9247854822543,460.0275850640751 L633.0399987507649,477.75325658668146 M712.7042074435055,386.07360390466624 L672.8260718860522,408.841747542255 M672.8260718860522,408.841747542255 L670.751469753428,408.97455263778704 M670.751469753428,408.97455263778704 L668.78332478258,409.3663274358289 M668.78332478258,409.3663274358289 L667.0202063306408,409.997484057528 M667.0202063306408,409.997484057528 L665.5504576103674,410.8364516466721 M665.5504576103674,410.8364516466721 L664.4477748212696,411.8412524947987 M664.4477748212696,411.8412524947987 L663.7675245269442,412.9615819024589 M663.7675245269442,412.9615819024589 L663.5439379697536,414.14131722662853 M440.7936941920847,518.1314345269304 L633.0399987507649,477.75325658668146 M512.0744056429169,408.84174534414205 L440.7936941920847,518.1314345269304 M512.0744056429169,408.84174534414205 L542.8835092073903,426.39303271527825 M561.5729106508052,426.39303271527825 L561.3000110928749,427.66511731373095 M561.3000110928749,427.66511731373095 L560.4997029670703,428.86355994327005 M560.4997029670703,428.86355994327005 L559.2183466982268,429.9186359043637 M559.2183466982268,429.9186359043637 L557.5303415835183,430.7689237456311 M557.5303415835183,430.7689237456311 L555.533812170926,431.3648973320141 M555.533812170926,431.3648973320141 L553.3449024110797,431.67182950936706 M553.3449024110797,431.67182950936706 L551.0909948166241,431.6718290609011 M551.0909948166241,431.6718290609011 L548.9032786725568,431.3648980219208 M548.9032786725568,431.3648980219208 L546.9090650093158,430.76892326275197 M546.9090650093158,430.76892326275197 L545.2243662234724,429.9186354905352 M545.2243662234724,429.9186354905352 L543.9471120296187,428.8635598053554 M543.9471120296187,428.8635598053554 L543.1514613750595,427.6651174516138 M543.1514613750595,427.6651174516138 L542.8835092073903,426.39303271527825 M672.3844982370515,363.40553439540406 L561.5729106508052,426.39303271527825 M672.3844982370515,363.40553439540406 L712.7042074435055,386.07360390466624 M672.8260718860522,408.841747542255 L672.604794911543,455.52782376368947 M712.7042074435055,386.07360390466624 L712.3957812308621,432.7071184841322 M672.3844982370515,363.40553439540406 L672.1651599458087,409.986498424188 M561.5729106508052,426.39303271527825 L561.5967004305094,473.1194760328661 M542.8835092073903,426.39303271527825 L542.9485306846605,473.1194760328662 M512.0744056429169,408.84174534414205 L512.2071718360924,455.52782156051273 M440.7936941920847,518.1314345269304 L441.0865071173039,565.0667307975148" stroke="black"  stroke-width="4"  fill="red"/>
<path d="M484.7868688097393,562.7747640575494 L484.5902596869459,515.5279434136097 M633.0399987507649,477.75325658668146 L633.1751380806378,430.7008238775711 M484.7868688097393,562.7747640575494 L633.0399987507649,477.75325658668146 M484.5902596869459,515.5279434136097 L633.1751380806378,430.7008238775711 M601.9247854822543,460.0275850640751 L601.9905205198643,413.01606808081584 M633.0399987507649,477.75325658668146 L601.9247854822543,460.0275850640751 M633.1751380806378,430.7008238775711 L601.9905205198643,413.01606808081584 M601.9599659191863,402.35292906990304 L599.7141103959093,402.5076982337023 M599.7141103959093,402.5076982337023 L597.5994686503302,402.9630348813314 M597.5994686503302,402.9630348813314 L595.7387907758213,403.6925531028011 M595.7387907758213,403.6925531028011 L594.2401423766808,404.65396042158767 M594.2401423766808,404.65396042158767 L593.1906428026192,405.79149493578586 M593.1906428026192,405.79149493578586 L592.6513966967811,407.03913918217677 M592.6513966967811,407.03913918217677 L592.6539212288199,408.32443868383683 M592.6539212288199,408.32443868383683 L593.1982643230174,409.57269437200836 M593.1982643230174,409.57269437200836 L594.2529711372692,410.71131274776894 M594.2529711372692,410.71131274776894 L595.7568534150109,411.674026219277 M595.7568534150109,411.674026219277 L597.6225372342886,412.40477486411066 M597.6225372342886,412.40477486411066 L599.7415258400887,412.8609851656558 M599.7415258400887,412.8609851656558 L601.9905205198643,413.01606808081584 M601.8943662148583,449.3397106642812 L601.9599659191863,402.35292906990304 M601.9247854822543,460.0275850640751 L599.6807804595894,459.87214275188813 M599.6807804595894,459.87214275188813 L597.5664946174146,459.414875145457 M597.5664946174146,459.414875145457 L595.7049526968904,458.68243274408223 M595.7049526968904,458.68243274408223 L594.2044104291582,457.7174875087889 M594.2044104291582,457.7174875087889 L593.1520477372833,456.57622907186044 M593.1520477372833,456.57622907186044 L592.6089171329621,455.325078471082 M592.6089171329621,455.325078471082 L592.6064037808965,454.0367974459776 M592.6064037808965,454.0367974459776 L593.1444599770203,452.7862583460557 M593.1444599770203,452.7862583460557 L594.1916384881747,451.64608387774535 M594.1916384881747,451.64608387774535 L595.6869700596159,450.68244492144277 M595.6869700596159,450.68244492144277 L597.5435282089213,449.95123306277816 M597.5435282089213,449.95123306277816 L599.6534864451902,449.49483919728385 M599.6534864451902,449.49483919728385 L601.8943662148583,449.3397106642812 M713.0139951052391,339.23424055686155 L601.9599659191863,402.35292906990304 M712.7042074435055,386.07360390466624 L713.0139951052391,339.23424055686155 M601.8943662148583,449.3397106642812 L712.7042074435055,386.07360390466624 M672.3844982370515,363.40553439540406 L672.6048025946161,316.61940646053256 M712.7042074435055,386.07360390466624 L672.3844982370515,363.40553439540406 M713.0139951052391,339.23424055686155 L672.6048025946161,316.61940646053256 M632.505390130714,386.07360828154873 L632.6381562642614,339.23424492348624 M672.3844982370515,363.40553439540406 L632.505390130714,386.07360828154873 M672.6048025946161,316.61940646053256 L632.6381562642614,339.23424492348624 M623.2230853473667,391.3498539313151 L623.3354203605531,344.49813091449306 M632.505390130714,386.07360828154873 L632.2788280369978,387.2472168231787 M632.2788280369978,387.2472168231787 L631.5967188691085,388.36222319573113 M631.5967188691085,388.36222319573113 L630.4931406791076,389.3626605648368 M630.4931406791076,389.3626605648368 L629.0233674499808,390.19828247352183 M629.0233674499808,390.19828247352183 L627.2610953042549,390.8271007616911 M627.2610953042549,390.8271007616911 L625.2947601438616,391.2175012756044 M625.2947601438616,391.2175012756044 L623.2230853473667,391.3498539313151 M632.6381562642614,339.23424492348624 L632.411109165804,340.40510324733236 M632.411109165804,340.40510324733236 L631.727508383741,341.51749727438016 M631.727508383741,341.51749727438016 L630.621506215626,342.5155911732149 M630.621506215626,342.5155911732149 L629.1484978987098,343.34925601044716 M629.1484978987098,343.34925601044716 L627.3823417641174,343.97660176895846 M627.3823417641174,343.97660176895846 L625.4116687722649,344.36608815087254 M625.4116687722649,344.36608815087254 L623.3354203605531,344.49813091449306 M561.5729106508052,426.39303271527825 L561.5490154472909,379.45952233999355 M623.2230853473667,391.3498539313151 L561.5729106508052,426.39303271527825 M623.3354203605531,344.49813091449306 L561.5490154472909,379.45952233999355 M542.81819958908,379.45952233999355 L543.0867375525861,380.7286480171432 M543.0867375525861,380.7286480171432 L543.8841442289697,381.9243032469886 M543.8841442289697,381.9243032469886 L545.1642232667994,382.9769257325555 M545.1642232667994,382.9769257325555 L546.8526518614431,383.82523681178884 M546.8526518614431,383.82523681178884 L548.851283437436,384.4198262721257 M548.851283437436,384.4198262721257 L551.0438483413732,384.7260439319866 M551.0438483413732,384.7260439319866 L553.302752990098,384.72604437941027 M553.302752990098,384.72604437941027 L555.4965168073015,384.4198255838225 M555.4965168073015,384.4198255838225 L557.4974744141732,383.82523729354546 M557.4974744141732,383.82523729354546 L559.1892240108372,382.9769261454218 M559.1892240108372,382.9769261454218 L560.4734233278351,381.9243033845827 M560.4734233278351,381.9243033845827 L561.2755081465766,380.7286478795811 M561.2755081465766,380.7286478795811 L561.5490154472909,379.45952233999355 M542.8835092073903,426.39303271527825 L542.81819958908,379.45952233999355 M561.5729106508052,426.39303271527825 L561.3000110928749,427.66511731373095 M561.3000110928749,427.66511731373095 L560.4997029670703,428.86355994327005 M560.4997029670703,428.86355994327005 L559.2183466982268,429.9186359043637 M559.2183466982268,429.9186359043637 L557.5303415835183,430.7689237456311 M557.5303415835183,430.7689237456311 L555.533812170926,431.3648973320141 M555.533812170926,431.3648973320141 L553.3449024110797,431.67182950936706 M553.3449024110797,431.67182950936706 L551.0909948166241,431.6718290609011 M551.0909948166241,431.6718290609011 L548.9032786725568,431.3648980219208 M548.9032786725568,431.3648980219208 L546.9090650093158,430.76892326275197 M546.9090650093158,430.76892326275197 L545.2243662234724,429.9186354905352 M545.2243662234724,429.9186354905352 L543.9471120296187,428.8635598053554 M543.9471120296187,428.8635598053554 L543.1514613750595,427.6651174516138 M543.1514613750595,427.6651174516138 L542.8835092073903,426.39303271527825 M512.0744056429169,408.84174534414205 L511.9410520991878,361.949132417944 M542.8835092073903,426.39303271527825 L512.0744056429169,408.84174534414205 M542.81819958908,379.45952233999355 L511.9410520991878,361.949132417944 M363.829274000814,492.7364425003682 L363.3642256230062,445.6495291086159 M512.0744056429169,408.84174534414205 L363.829274000814,492.7364425003682 M511.9410520991878,361.949132417944 L363.3642256230062,445.6495291086159 M484.5902596869459,515.5279434136097 L489.07787271521636,523.8320151565154 M489.07787271521636,523.8320151565154 L492.4735003578479,532.3221827953182 M492.4735003578479,532.3221827953182 L494.7555336307024,540.9515345169855 M494.7555336307024,540.9515345169855 L495.90846373145393,549.6721175169791 M495.90846373145393,549.6721175169791 L495.92297021644004,558.4352577709592 M495.92297021644004,558.4352577709592 L494.7961477580994,567.1917824853176 M494.7961477580994,567.1917824853176 L492.53148118959837,575.8923225001004 M492.53148118959837,575.8923225001004 L489.13893927580136,584.4875628507309 M489.13893927580136,584.4875628507309 L484.6349869381893,592.9285645726502 M484.6349869381893,592.9285645726502 L479.04251492604334,601.1670113403263 M479.04251492604334,601.1670113403263 L472.39079475259825,609.1555544750677 M472.39079475259825,609.1555544750677 L464.7153797926448,616.8480449613801 M464.7153797926448,616.8480449613801 L456.05787745403353,624.199867410861 M456.05787745403353,624.199867410861 L446.46586314811975,631.1681822424059 M446.46586314811975,631.1681822424059 L435.99254380396565,637.7122361724498 M435.99254380396565,637.7122361724498 L424.6964890672557,643.7936295660386 M424.6964890672557,643.7936295660386 L412.64133486628623,649.3765207020786 M412.64133486628623,649.3765207020786 L399.895440693697,654.4279417371343 M399.895440693697,654.4279417371343 L386.5314573334707,658.917901070248 M386.5314573334707,658.917901070248 L372.6259259702125,662.8197343820517 M372.6259259702125,662.8197343820517 L358.25870933530996,666.1102118827662 M358.25870933530996,666.1102118827662 L343.51265054037447,668.7697065684415 M343.51265054037447,668.7697065684415 L328.47307242185644,670.7822693844614 M328.47307242185644,670.7822693844614 L313.22697618627103,672.1359035395717 M313.22697618627103,672.1359035395717 L297.86288877178106,672.8224650773918 M297.86288877178106,672.8224650773918 L282.4698989788109,672.8378730039632 M282.4698989788109,672.8378730039632 L267.13748200849744,672.1819864895581 M267.13748200849744,672.1819864895581 L251.95460402963204,670.8587679613058 M251.95460402963204,670.8587679613058 L237.00926667628002,668.8761688285235 M237.00926667628002,668.8761688285235 L222.38810750431287,666.2460011439543 M222.38810750431287,666.2460011439543 L208.1755626051226,662.984032690505 M208.1755626051226,662.984032690505 L194.45358673781197,659.1097199136493 M194.45358673781197,659.1097199136493 L181.30101815303038,654.6461364644811 M181.30101815303038,654.6461364644811 L168.79309917889577,649.6198317571086 M168.79309917889577,649.6198317571086 L157.00109738180666,644.060587119777 M157.00109738180666,644.060587119777 L145.99179528289343,638.0012735129609 M145.99179528289343,638.0012735129609 L135.82717082544877,631.4775858350114 M135.82717082544877,631.4775858350114 L126.56399686536292,624.5278345637872 M126.56399686536292,624.5278345637872 L118.2535840566141,617.192663983401 M118.2535840566141,617.192663983401 L110.94143465727268,609.5148251903022 M110.94143465727268,609.5148251903022 L104.66712143481004,601.5388516161621 M104.66712143481004,601.5388516161621 L99.4639953172682,593.3108189964778 M99.4639953172682,593.3108189964778 L95.35907414345706,584.8780604201507 M95.35907414345706,584.8780604201507 L92.37305464542635,576.2888045695429 M92.37305464542635,576.2888045695429 L90.51997944538869,567.5920250362451 M90.51997944538869,567.5920250362451 L89.8075298726622,558.8369874754113 M89.8075298726622,558.8369874754113 L90.23691848611145,550.0730533358819 M90.23691848611145,550.0730533358819 L91.80279722268835,541.3494605074366 M91.80279722268835,541.3494605074366 L94.49363509465712,532.7148659681652 M94.49363509465712,532.7148659681652 L98.29157748738021,524.2173002746872 M98.29157748738021,524.2173002746872 L103.17287475305875,515.9036841482689 M103.17287475305875,515.9036841482689 L109.10774841634463,507.81980496086567 M109.10774841634463,507.81980496086567 L116.06088992420075,500.0099323678611 M116.06088992420075,500.0099323678611 L123.99159659978545,492.5166026580813 M123.99159659978545,492.5166026580813 L132.85404421651094,485.38049301059414 M132.85404421651094,485.38049301059414 L142.59744525601843,478.6401642809863 M142.59744525601843,478.6401642809863 L153.16660042356136,472.33189677384485 M153.16660042356136,472.33189677384485 L164.50201551091737,466.4895009345725 M164.50201551091737,466.4895009345725 L176.54036567592627,461.14417380241326 M176.54036567592627,461.14417380241326 L189.2147589434891,456.3243731639041 M189.2147589434891,456.3243731639041 L202.45509777379905,452.0556994843191 M202.45509777379905,452.0556994843191 L216.18850940211547,448.3607312008876 M216.18850940211547,448.3607312008876 L230.33965138134587,445.2589910363762 M230.33965138134587,445.2589910363762 L244.8311753088923,442.7668236760508 M244.8311753088923,442.7668236760508 L259.58401566105886,440.8973358971716 M259.58401566105886,440.8973358971716 L274.5178743935163,439.6603582573138 M274.5178743935163,439.6603582573138 L289.5515442409521,439.0623833110685 M289.5515442409521,439.0623833110685 L304.60336750192994,439.10654232144327 M304.60336750192994,439.10654232144327 L319.59158198950394,439.7926201652015 M319.59158198950394,439.7926201652015 L334.43476975316037,441.116997011183 M334.43476975316037,441.116997011183 L349.05217816674406,443.0727260258952 M349.05217816674406,443.0727260258952 L363.3642256230062,445.6495291086159 M363.829274000814,492.7364425003682 L349.5489505186427,490.1537026173658 M349.5489505186427,490.1537026173658 L334.9639610687518,488.1934658142334 M334.9639610687518,488.1934658142334 L320.1537162748561,486.8660354587884 M320.1537162748561,486.8660354587884 L305.1987954085912,486.1783754838486 M305.1987954085912,486.1783754838486 L290.1804416618482,486.1341146335675 M290.1804416618482,486.1341146335675 L275.1802416046487,486.73346856381085 M275.1802416046487,486.73346856381085 L260.27967729828464,487.97329829737856 M260.27967729828464,487.97329829737856 L245.55978094822495,489.8470952972169 M245.55978094822495,489.8470952972169 L231.10067698043838,492.3450048353072 M231.10067698043838,492.3450048353072 L216.9812593122474,495.4538879580771 M216.9812593122474,495.4538879580771 L203.27870769082045,499.1573599384068 M203.27870769082045,499.1573599384068 L190.06819937766483,503.435850347509 M190.06819937766483,503.435850347509 L177.42244635195928,508.2667257330006 M177.42244635195928,508.2667257330006 L165.4113903582178,513.6243234651066 M165.4113903582178,513.6243234651066 L154.1017734669992,519.4801169113409 M154.1017734669992,519.4801169113409 L143.55677727387558,525.8028338705667 M143.55677727387558,525.8028338705667 L133.8357599718068,532.5585828060741 M133.8357599718068,532.5585828060741 L124.99379311992567,539.7109968208222 M124.99379311992567,539.7109968208222 L117.08154508310031,547.2214234974119 M117.08154508310031,547.2214234974119 L110.14473081329515,555.04908959671 M110.14473081329515,555.04908959671 L104.22395404376869,563.1513589490847 M104.22395404376869,563.1513589490847 L99.35443543283981,571.483858568033 M99.35443543283981,571.483858568033 L95.56587705170341,580.0006948667103 M95.56587705170341,580.0006948667103 L92.88196492670181,588.6548389624081 M92.88196492670181,588.6548389624081 L91.32050268719672,597.3981502965745 M91.32050268719672,597.3981502965745 L90.89298414722532,606.1818611824731 M90.89298414722532,606.1818611824731 L91.60473386945,614.9566224426053 M91.60473386945,614.9566224426053 L93.45453054316215,623.6729618033107 M93.45453054316215,623.6729618033107 L96.43469883267602,632.2815037348144 M96.43469883267602,632.2815037348144 L100.53121681033804,640.7331661413814 M100.53121681033804,640.7331661413814 L105.72342401747153,648.9796141865447 M105.72342401747153,648.9796141865447 L111.98435389249408,656.9734112629208 M111.98435389249408,656.9734112629208 L119.28072199772089,664.6683814965152 M119.28072199772089,664.6683814965152 L127.57303717419728,672.019895255648 M127.57303717419728,672.019895255648 L136.81589335947308,678.9851096294046 M136.81589335947308,678.9851096294046 L146.9580905217318,685.5232935304655 M146.9580905217318,685.5232935304655 L157.9429801471495,691.5960550903264 M157.9429801471495,691.5960550903264 L169.70872182551278,697.1676239510155 M169.70872182551278,697.1676239510155 L182.18868286918058,702.2050599768063 M182.18868286918058,702.2050599768063 L195.3117571133813,706.6785194296531 M195.3117571133813,706.6785194296531 L209.00287399429263,710.561397462217 M209.00287399429263,710.561397462217 L223.18337646099974,713.8305724087309 M223.18337646099974,713.8305724087309 L237.77149919891423,716.466547451465 M237.77149919891423,716.466547451465 L252.68300223257717,718.4535221581102 M252.68300223257717,718.4535221581102 L267.8314500209366,719.7796600744355 M267.8314500209366,719.7796600744355 L283.1290467613803,720.4369933778823 M283.1290467613803,720.4369933778823 L298.48703485020474,720.4215514658156 M298.48703485020474,720.4215514658156 L313.8161491647635,719.7334754652961 M313.8161491647635,719.7334754652961 L329.0275102566551,718.3768547811144 M329.0275102566551,718.3768547811144 L344.0327992294487,716.3598501825732 M344.0327992294487,716.3598501825732 L358.74521922033153,713.6944832468105 M358.74521922033153,713.6944832468105 L373.0796475225272,710.3967360572653 M373.0796475225272,710.3967360572653 L386.95343494698943,706.4862763492129 M386.95343494698943,706.4862763492129 L400.2869051985947,701.9863822581433 M400.2869051985947,701.9863822581433 L413.0036951444307,696.9237737806234 M413.0036951444307,696.9237737806234 L425.0313222802903,691.3285053872353 M425.0313222802903,691.3285053872353 L436.3015846354365,685.2336143102394 M436.3015846354365,685.2336143102394 L446.75099202690734,678.675018059626 M446.75099202690734,678.675018059626 L456.32110798543874,671.6911978671799 M456.32110798543874,671.6911978671799 L464.95884553547,664.3229940747408 M464.95884553547,664.3229940747408 L472.6167354318789,656.6133382919245 M472.6167354318789,656.6133382919245 L479.2532619554321,648.6069423109282 M479.2532619554321,648.6069423109282 L484.83294884537395,640.3500554740874 M484.83294884537395,640.3500554740874 L489.3265867309066,631.8901300410164 M489.3265867309066,631.8901300410164 L492.7113319493349,623.2755887180012 M492.7113319493349,623.2755887180012 L494.9707516603814,614.5554789280523 M494.9707516603814,614.5554789280523 L496.09489418196466,605.7792256544988 M496.09489418196466,605.7792256544988 L496.08027696454633,596.9963089336038 M496.08027696454633,596.9963089336038 L494.92979320707434,588.2560127336333 M494.92979320707434,588.2560127336333 L492.65273693060783,579.6071218591854 M492.65273693060783,579.6071218591854 L489.2645769009688,571.0976989724584 M489.2645769009688,571.0976989724584 L484.7868688097393,562.7747640575494 M314.56053024443685,590.0437682167594 L318.1310370011453,592.6014739273761 M318.1310370011453,592.6014739273761 L320.76093691828106,595.5210647838808 M320.76093691828106,595.5210647838808 L322.34859986554943,598.6908286663302 M322.34859986554943,598.6908286663302 L322.83211403149033,601.9893058646169 M322.83211403149033,601.9893058646169 L322.19186974615474,605.2898586341089 M322.19186974615474,605.2898586341089 L320.4514821724156,608.4655136248853 M320.4514821724156,608.4655136248853 L317.67695261875053,611.3939113410192 M317.67695261875053,611.3939113410192 L313.97434942207633,613.9620055002493 M313.97434942207633,613.9620055002493 L309.48572704572314,616.0705378940536 M309.48572704572314,616.0705378940536 L304.38385007630575,617.6378565186044 M304.38385007630575,617.6378565186044 L298.8653562782993,618.6032371614058 M298.8653562782993,618.6032371614058 L293.1431894508928,618.9292466249437 M293.1431894508928,618.9292466249437 L287.4382963033946,618.6032291526328 M287.4382963033946,618.6032291526328 L281.9709013722213,617.6378516570253 M281.9709013722213,617.6378516570253 L276.9519926109148,616.0705370363828 M276.9519926109148,616.0705370363828 L272.5750374447149,613.9620055002493 M272.5750374447149,613.9620055002493 L269.00836445563306,611.3939144830233 M269.00836445563306,611.3939144830233 L266.3888776003542,608.465511626539 M266.3888776003542,608.465511626539 L264.8166215977019,605.289850645541 M264.8166215977019,605.289850645541 L264.3511171097815,601.9893149886886 M264.3511171097815,601.9893149886886 L265.0092616541792,598.6908389244817 M265.0092616541792,598.6908389244817 L266.76472842940296,595.521071903308 M266.76472842940296,595.521071903308 L269.5492044849325,592.6014861659978 M269.5492044849325,592.6014861659978 L273.2551392406274,590.0437682167594 M273.2551392406274,590.0437682167594 L277.7398797955658,587.9456485424528 M277.7398797955658,587.9456485424528 L282.8313437551184,586.38714192367 M282.8313437551184,586.38714192367 L288.3344466116359,585.4276492712256 M288.3344466116359,585.4276492712256 L294.03860367400273,585.1036983033196 M294.03860367400273,585.1036983033196 L299.7255965637372,585.4276390389052 M299.7255965637372,585.4276390389052 L305.1778962551381,586.3871376594249 M305.1778962551381,586.3871376594249 L310.1868584980416,587.9456402958017 M310.1868584980416,587.9456402958017 L314.56053024443685,590.0437682167594 M314.56053024443685,590.0437682167594 L313.9802245598677,542.735255173819 M313.9802245598677,542.735255173819 L309.5968255292506,540.6418627048574 M309.5968255292506,540.6418627048574 L304.57667953018347,539.0868788088405 M304.57667953018347,539.0868788088405 L299.11216693591024,538.1295470312898 M299.11216693591024,538.1295470312898 L293.41239742843163,537.8063379422797 M293.41239742843163,537.8063379422797 L287.69538645358665,538.1295572405004 M287.69538645358665,538.1295572405004 L282.1798418205412,539.0868830634565 M282.1798418205412,539.0868830634565 L277.07682234135774,540.6418709328922 M277.07682234135774,540.6418709328922 L272.58185392797526,542.735255173819 M272.58185392797526,542.735255173819 L268.8674108932886,545.287202923944 M268.8674108932886,545.287202923944 L266.07647401581903,548.2002055045988 M266.07647401581903,548.2002055045988 L264.31684462214054,551.3628293751824 M264.31684462214054,551.3628293751824 L263.65699945462126,554.6538767951208 M263.65699945462126,554.6538767951208 L264.1233352922692,557.9469838196368 M264.1233352922692,557.9469838196368 L265.6989272303192,561.1155016193661 M265.6989272303192,561.1155016193661 L268.3241304475533,564.0373212819297 M268.3241304475533,564.0373212819297 L271.89868333156704,566.5996421179035 M271.89868333156704,566.5996421179035 L276.28538001030284,568.7034381512601 M276.28538001030284,568.7034381512601 L281.31551688102036,570.2672340059439 M281.31551688102036,570.2672340059439 L286.79519244038437,571.2304446620387 M286.79519244038437,571.2304446620387 L292.5129428881846,571.5557304612354 M292.5129428881846,571.5557304612354 L298.24804505255554,571.2304526528371 M298.24804505255554,571.2304526528371 L303.77905042799375,570.26723885661 M303.77905042799375,570.26723885661 L308.89253043133135,568.703439007005 M308.89253043133135,568.703439007005 L313.3913987334663,566.5996421179034 M313.3913987334663,566.5996421179034 L317.1024958702931,564.037318146987 M317.1024958702931,564.037318146987 L319.8834418926417,561.1155036132187 M319.8834418926417,561.1155036132187 L321.6279243963321,557.9469917902302 M321.6279243963321,557.9469917902302 L322.2697886224164,554.6538676915915 M322.2697886224164,554.6538676915915 L321.78536168285206,551.362819140141 M321.78536168285206,551.362819140141 L320.19429296278577,548.2001984012202 M320.19429296278577,548.2001984012202 L317.5586291690938,545.2871907129258 M317.5586291690938,545.2871907129258 L313.9802245598677,542.735255173819" stroke="black"  stroke-width="4"  fill="red"/>
<path d="M602.0258576719376,355.1569633697434 L601.9599659191863,402.35292906990304 M601.990520519864,413.01606808081584 L599.7415258400887,412.8609851656558 M599.7415258400887,412.8609851656558 L597.6225372342886,412.40477486411066 M597.6225372342886,412.40477486411066 L595.7568534150109,411.674026219277 M595.7568534150109,411.674026219277 L594.2529711372692,410.71131274776894 M594.2529711372692,410.71131274776894 L593.1982643230174,409.57269437200836 M593.1982643230174,409.57269437200836 L592.6539212288199,408.32443868383683 M592.6539212288199,408.32443868383683 L592.6513966967811,407.03913918217677 M592.6513966967811,407.03913918217677 L593.1906428026192,405.79149493578586 M593.1906428026192,405.79149493578586 L594.2401423766808,404.65396042158767 M594.2401423766808,404.65396042158767 L595.7387907758213,403.6925531028011 M595.7387907758213,403.6925531028011 L597.5994686503302,402.9630348813314 M597.5994686503302,402.9630348813314 L599.7141103959093,402.5076982337023 M599.7141103959093,402.5076982337023 L601.9599659191863,402.35292906990304 M602.0565485110965,365.7950403907127 L601.990520519864,413.01606808081584 M602.0258576719376,355.1569633697434 L599.7750042471594,355.31136842399746 M599.7750042471594,355.31136842399746 L597.6556581520779,355.76563390748527 M597.6556581520779,355.76563390748527 L595.7908422266805,356.49343614767224 M595.7908422266805,356.49343614767224 L594.2888622516166,357.45258238234635 M594.2888622516166,357.45258238234635 L593.2370313017078,358.58744210118215 M593.2370313017078,358.58744210118215 L592.6965900111786,359.83215328012363 M592.6965900111786,359.83215328012363 L592.6991257979654,361.1144318909246 M592.6991257979654,361.1144318909246 L593.2446868080572,362.35975443353595 M593.2446868080572,362.35975443353595 L594.301748211853,363.4956978731375 M594.301748211853,363.4956978731375 L595.8089854028874,364.45615009360245 M595.8089854028874,364.45615009360245 L597.6788295949174,365.18518259950315 M597.6788295949174,365.18518259950315 L599.8025419333233,365.6403216226894 M599.8025419333233,365.6403216226894 L602.0565485110965,365.7950403907127 M663.9484852481282,320.12325726012523 L663.745763877039,367.2363415456639 M663.9484852481282,320.12325726012523 L602.0258576719376,355.1569633697434 M663.745763877039,367.2363415456639 L601.9599659191863,402.35292906990304 M673.0483277780884,361.94913461092665 L670.969139082779,362.0816297544096 M670.969139082779,362.0816297544096 L668.9966482935711,362.4724902383274 M668.9966482935711,362.4724902383274 L667.229642145503,363.1021740204861 M667.229642145503,363.1021740204861 L665.7566585003277,363.93918409480307 M665.7566585003277,363.93918409480307 L664.6515557666665,364.9416408944114 M664.6515557666665,364.9416408944114 L663.9698221711492,366.05935725117047 M663.9698221711492,366.05935725117047 L663.745763877039,367.2363415456639 M713.0139951052391,339.23424055686155 L673.0483277780884,361.94913461092665 M672.6048025946161,316.61940646053256 L713.0139951052391,339.23424055686155 M561.5490154472909,379.45952233999355 L672.6048025946161,316.61940646053256 M542.8181995890799,379.45952233999355 L543.0867375525861,380.7286480171432 M543.0867375525861,380.7286480171432 L543.8841442289697,381.9243032469886 M543.8841442289697,381.9243032469886 L545.1642232667994,382.9769257325555 M545.1642232667994,382.9769257325555 L546.8526518614431,383.82523681178884 M546.8526518614431,383.82523681178884 L548.851283437436,384.4198262721257 M548.851283437436,384.4198262721257 L551.0438483413732,384.7260439319866 M551.0438483413732,384.7260439319866 L553.302752990098,384.72604437941027 M553.302752990098,384.72604437941027 L555.4965168073015,384.4198255838225 M555.4965168073015,384.4198255838225 L557.4974744141732,383.82523729354546 M557.4974744141732,383.82523729354546 L559.1892240108372,382.9769261454218 M559.1892240108372,382.9769261454218 L560.4734233278351,381.9243033845827 M560.4734233278351,381.9243033845827 L561.2755081465766,380.7286478795811 M561.2755081465766,380.7286478795811 L561.5490154472909,379.45952233999355 M511.9410520991878,361.949132417944 L542.8181995890799,379.45952233999355 M511.9410520991878,361.949132417944 L440.49957215160157,470.986298773627 M440.49957215160157,470.986298773627 L633.1751380806378,430.7008238775711 M601.990520519864,413.01606808081584 L633.1751380806378,430.7008238775711 M633.3108807021667,383.4383387723398 L633.1751380806378,430.7008238775711 M602.0565485110965,365.7950403907127 L633.3108807021667,383.4383387723398 M713.32515349085,292.18762610882743 L673.2715692704928,314.84857499195243 M673.2715692704928,314.84857499195243 L671.1877736857033,314.9807561258583 M671.1877736857033,314.9807561258583 L669.2109178422327,315.37069032593917 M669.2109178422327,315.37069032593917 L667.4400068140026,315.9988819850804 M667.4400068140026,315.9988819850804 L665.9637739714758,316.83390891184393 M665.9637739714758,316.83390891184393 L664.8562406480714,317.83399096342987 M664.8562406480714,317.83399096342987 L664.1730172693455,318.94906003990127 M664.1730172693455,318.94906003990127 L663.9484852481282,320.12325726012523 M440.2041319687583,423.62987657470256 L633.3108807021667,383.4383387723398 M511.80710719520033,314.84857280416696 L440.2041319687583,423.62987657470256 M511.80710719520033,314.84857280416696 L542.7525998594749,332.3175290213227 M561.5250140990984,332.31752902132257 L561.2508963425219,333.5836566336882 M561.2508963425219,333.5836566336882 L560.4470269240683,334.77648839573055 M560.4470269240683,334.77648839573055 L559.1599719135718,335.82662571831565 M559.1599719135718,335.82662571831565 L557.4644611838931,336.67293419252667 M557.4644611838931,336.67293419252667 L555.4590556943738,337.26611897651514 M555.4590556943738,337.26611897651514 L553.2604162416751,337.5716150118999 M553.2604162416751,337.5716150118999 L550.9964923299444,337.57161456553223 M550.9964923299444,337.57161456553223 L548.7990571233508,337.26611966319365 M548.7990571233508,337.26611966319365 L546.7959880148555,336.67293371190726 M546.7959880148555,336.67293371190726 L545.1038130582606,335.82662530642415 M545.1038130582606,335.82662530642415 L543.820896652572,334.7764882584614 M543.820896652572,334.7764882584614 L543.0217261855041,333.5836567709255 M543.0217261855041,333.5836567709255 L542.7525998594749,332.3175290213227 M672.82607958599,269.62671987957015 L561.5250140990984,332.31752902132257 M672.82607958599,269.62671987957015 L713.32515349085,292.18762610882743 M673.2715692704928,314.84857499195243 L673.0483277780884,361.94913461092665 M713.32515349085,292.18762610882743 L713.0139951052391,339.23424055686155 M672.82607958599,269.62671987957015 L672.6048025946161,316.61940646053256 M561.5250140990984,332.31752902132257 L561.5490154472909,379.45952233999355 M542.7525998594749,332.3175290213227 L542.8181995890799,379.45952233999355 M511.80710719520033,314.84857280416696 L511.9410520991878,361.949132417944 M440.2041319687583,423.62987657470256 L440.49957215160157,470.986298773627" stroke="black"  stroke-width="4"  fill="red"/>
<path d="M561.620385468891,519.6401927934368 L561.5967004305094,473.1194760328661 M542.9485306846605,473.1194760328662 L543.2158996059748,474.394481388695 M543.2158996059748,474.394481388695 L544.0098019550098,475.59567465183 M544.0098019550098,475.59567465183 L545.284243743872,476.6531716542704 M545.284243743872,476.6531716542704 L546.9652291617435,477.50541042534593 M546.9652291617435,477.50541042534593 L548.9550443987705,478.1027524740551 M548.9550443987705,478.1027524740551 L551.1379331794224,478.41038761723604 M551.1379331794224,478.41038761723604 L553.3868657774449,478.4103880667307 M553.3868657774449,478.4103880667307 L555.5709429114245,478.10275178256563 M555.5709429114245,478.10275178256563 L557.5630636842798,477.5054109093329 M557.5630636842798,477.5054109093329 L559.247340854895,476.6531720690485 M559.247340854895,476.6531720690485 L560.5258666349448,475.5956747900613 M560.5258666349448,475.5956747900613 L561.3244059207966,474.3944812504956 M561.3244059207966,474.3944812504956 L561.5967004305094,473.1194760328661 M543.0132658862437,519.6401927934368 L542.9485306846605,473.1194760328662 M561.620385468891,519.6401927934368 L561.3486933303623,520.9180806100026 M561.3486933303623,520.9180806100026 L560.5519150824136,522.1219892403076 M560.5519150824136,522.1219892403076 L559.2762073132112,523.181876302818 M559.2762073132112,523.181876302818 L557.5956416560069,524.0360407284705 M557.5956416560069,524.0360407284705 L555.607910095056,524.6347310759031 M555.607910095056,524.6347310759031 L553.4286442943011,524.9430622931866 M553.4286442943011,524.9430622931866 L551.1846647777481,524.9430618426766 M551.1846647777481,524.9430618426766 L549.0065821025996,524.6347317689547 M549.0065821025996,524.6347317689547 L547.0211459313665,524.0360402433901 M547.0211459313665,524.0360402433901 L545.3438575469728,523.1818758871027 M545.3438575469728,523.1818758871027 L544.072215804483,522.1219891017639 M544.072215804483,522.1219891017639 L543.2800540944156,520.9180807485144 M543.2800540944156,520.9180807485144 L543.0132658862437,519.6401927934368 M622.999893954061,484.4366043777124 L623.1112442740141,437.99556876216155 M622.999893954061,484.4366043777124 L561.620385468891,519.6401927934368 M623.1112442740141,437.99556876216155 L561.5967004305094,473.1194760328661 M632.3732074753166,432.7071228711403 L632.1471283208564,433.883446171176 M632.1471283208564,433.883446171176 L631.4665042730792,435.0010312003225 M631.4665042730792,435.0010312003225 L630.365339460579,436.0037818122746 M630.365339460579,436.0037818122746 L628.898787141669,436.84133554467525 M628.898787141669,436.84133554467525 L627.1403819411307,437.471607363145 M627.1403819411307,437.471607363145 L625.1783655590134,437.86291021332534 M625.1783655590134,437.86291021332534 L623.1112442740141,437.99556876216155 M672.1651599458087,409.986498424188 L632.3732074753166,432.7071228711403 M712.3957812308621,432.7071184841322 L672.1651599458087,409.986498424188 M601.8290565713827,496.1187317809576 L712.3957812308621,432.7071184841322 M601.8593414025906,506.83101858181607 L599.6203039476861,506.67522157012945 M599.6203039476861,506.67522157012945 L597.510700043071,506.21691047760794 M597.510700043071,506.21691047760794 L595.6532816732495,505.4827964543417 M595.6532816732495,505.4827964543417 L594.1560646138855,504.5156486161687 M594.1560646138855,504.5156486161687 L593.1060356486569,503.3717846071282 M593.1060356486569,503.3717846071282 L592.5641121453018,502.11777690365784 M592.5641121453018,502.11777690365784 L592.5616098991036,500.82655328699497 M592.5616098991036,500.82655328699497 L593.0984814247347,499.57315712475383 M593.0984814247347,499.57315712475383 L594.1433491158668,498.43037715823374 M594.1433491158668,498.43037715823374 L595.6353785075789,497.4645356853677 M595.6353785075789,497.4645356853677 L597.4878351327459,496.7316522865213 M597.4878351327459,496.7316522865213 L599.593130558135,496.274214995234 M599.593130558135,496.274214995234 L601.8290565713827,496.1187317809576 M632.9054585961273,524.5970701434024 L601.8593414025906,506.83101858181607 M632.9054585961273,524.5970701434024 L441.0865071173039,565.0667307975148 M441.0865071173039,565.0667307975148 L512.2071718360924,455.52782156051273 M542.9485306846605,473.1194760328662 L512.2071718360924,455.52782156051273 M512.3393544743999,502.00869578695733 L512.2071718360924,455.52782156051273 M543.0132658862437,519.6401927934368 L512.3393544743999,502.00869578695733 M632.241604536012,479.13611593110244 L632.0160062681975,480.3151189152886 M632.0160062681975,480.3151189152886 L631.3368608879323,481.4352492780609 M631.3368608879323,481.4352492780609 L630.2380989203184,482.4402832338175 M630.2380989203184,482.4402832338175 L628.774753425197,483.27974381651075 M628.774753425197,483.27974381651075 L627.0201982358876,483.9114503723668 M627.0201982358876,483.9114503723668 L625.0624817016392,484.3036438912597 M625.0624817016392,484.3036438912597 L622.999893954061,484.4366043777124 M671.9467815062233,456.36361835773846 L632.241604536012,479.13611593110244 M712.0887076891746,479.13611153409965 L671.9467815062233,456.36361835773846 M601.7640351066673,542.6913404965951 L712.0887076891746,479.13611153409965 M601.7640351066673,542.6913404965951 L599.5330409953564,542.8471737555021 M599.5330409953564,542.8471737555021 L597.4323878166492,543.3056408314026 M597.4323878166492,543.3056408314026 L595.5840146325543,544.0401739151869 M595.5840146325543,544.0401739151869 L594.095272867525,545.0081891023149 M594.095272867525,545.0081891023149 L593.0527058198566,546.1535404882162 M593.0527058198566,546.1535404882162 L592.5170137593423,547.4097563351959 M592.5170137593423,547.4097563351959 L592.5195049731316,548.7038840377097 M592.5195049731316,548.7038840377097 L593.0602267292778,549.9607114479147 M593.0602267292778,549.9607114479147 L594.1079322959299,551.1071469176632 M594.1079322959299,551.1071469176632 L595.601838852301,552.0764685171578 M595.601838852301,552.0764685171578 L597.4551519001886,552.812232270091 M597.4551519001886,552.812232270091 L599.560094557962,553.2715731812655 M599.560094557962,553.2715731812655 L601.7941863909473,553.4277202463786 M632.7715137178889,571.2336220337462 L601.7941863909473,553.4277202463786 M632.7715137178889,571.2336220337462 L441.37801947989766,611.7935584969109 M441.37801947989766,611.7935584969109 L512.3393544743999,502.00869578695733 M632.241604536012,479.13611593110244 L632.3732074753166,432.7071228711403 M671.9467815062233,456.36361835773846 L672.1651599458087,409.986498424188 M712.0887076891746,479.13611153409965 L712.3957812308621,432.7071184841322 M601.7640351066673,542.6913404965951 L601.8290565713827,496.1187317809576 M601.7941863909473,553.4277202463786 L601.8593414025906,506.83101858181607 M632.7715137178889,571.2336220337462 L632.9054585961273,524.5970701434024 M441.37801947989766,611.7935584969109 L441.0865071173039,565.0667307975148" stroke="black"  stroke-width="4"  fill="red"/>
<path d="M602.1585250817325,260.13192213524974 L602.0920434021932,307.7504318304343 M602.1228713930698,318.3631166307425 L599.8638305293191,318.2087668127877 M599.8638305293191,318.2087668127877 L597.7353733505994,317.75471319681617 M597.7353733505994,317.75471319681617 L595.8613501895575,317.0274194611119 M595.8613501895575,317.0274194611119 L594.3507430832766,316.06925830678625 M594.3507430832766,316.06925830678625 L593.2913165534186,314.93602506602633 M593.2913165534186,314.93602506602633 L592.7445321653834,313.69367432689 M592.7445321653834,313.69367432689 L592.7419850484093,312.4144564118692 M592.7419850484093,312.4144564118692 L593.2836268332965,311.1727169389204 M593.2836268332965,311.1727169389204 L594.3377995399746,310.0405672437915 M594.3377995399746,310.0405672437915 L595.8431259364794,309.0837118669444 M595.8431259364794,309.0837118669444 L597.7120983593938,308.35764820032136 M597.7120983593938,308.35764820032136 L599.8361697817544,307.90446798215225 M599.8361697817544,307.90446798215225 L602.0920434021932,307.7504318304343 M602.189491145744,270.7188807994695 L602.1228713930698,318.3631166307425 M602.1585250817325,260.13192213524974 L599.8976088219686,260.28558453799303 M599.8976088219686,260.28558453799303 L597.768790953922,260.7376652324155 M597.768790953922,260.7376652324155 L595.8956434632391,261.46196748123646 M595.8956434632391,261.46196748123646 L594.386955700327,262.4165018944623 M594.386955700327,262.4165018944623 L593.3304307864686,263.5459059445747 M593.3304307864686,263.5459059445747 L592.7875831620954,264.784634641923 M592.7875831620954,264.784634641923 L592.7901416853715,266.0607516120999 M592.7901416853715,266.0607516120999 L593.3381549502254,267.3000914584387 M593.3381549502254,267.3000914584387 L594.3999572135467,268.4305788441018 M594.3999572135467,268.4305788441018 L595.9139493378777,269.38641878437977 M595.9139493378777,269.38641878437977 L597.7921701891543,270.11195086597786 M597.7921701891543,270.11195086597786 L599.9253934576907,270.56490478813896 M599.9253934576907,270.56490478813896 L602.189491145744,270.7188807994695 M664.3566380890286,225.2672532215895 L664.152107977144,272.8006945572498 M664.3566380890286,225.2672532215895 L602.1585250817325,260.13192213524974 M664.152107977144,272.8006945572498 L602.0920434021932,307.7504318304343 M713.6376915974199,244.932400217174 L673.4958028472506,267.5387006629858 M673.4958028472506,267.5387006629858 L671.4073799125467,267.67056368493445 M671.4073799125467,267.67056368493445 L669.4261396526045,268.05955949914494 M669.4261396526045,268.05955949914494 L667.6513064475104,268.6862395386064 M667.6513064475104,268.6862395386064 L666.1718100417813,269.51925740168906 M666.1718100417813,269.51925740168906 L665.0618354140063,270.5169336662911 M665.0618354140063,270.5169336662911 L664.3771157280596,271.62932085455236 M664.3771157280596,271.62932085455236 L664.152107977144,272.8006945572498 M602.1228713930698,318.3631166307425 L633.4472306115729,335.9644098779835 M439.90736487714827,376.0607627534859 L633.4472306115729,335.9644098779835 M511.6725670405629,267.5386984804657 L439.90736487714827,376.0607627534859 M511.6725670405629,267.5386984804657 L542.6867081066671,284.9656788029665 M542.6867081066671,284.9656788029665 L542.9564253785803,286.22876932609006 M542.9564253785803,286.22876932609006 L543.7573674561766,287.41874004719773 M543.7573674561766,287.41874004719773 L545.0431338359779,288.4663590623445 M545.0431338359779,288.4663590623445 L546.7390718166628,289.3106385253931 M546.7390718166628,289.3106385253931 L548.7465982066763,289.90240255558865 M548.7465982066763,289.90240255558865 L550.948925400713,290.2071652180566 M550.948925400713,290.2071652180566 L553.2178909306247,290.2071656633544 M553.2178909306247,290.2071656633544 L555.4214277392701,289.902401870556 M555.4214277392701,289.902401870556 L557.4313009296789,289.3106390048604 M557.4313009296789,289.3106390048604 L559.1305895532865,288.46635947324864 M559.1305895532865,288.46635947324864 L560.4205129860719,287.41874018413785 M560.4205129860719,287.41874018413785 L561.226174963219,286.228769189182 M561.226174963219,286.228769189182 L561.5009059067067,284.9656788029665 M561.5009059067067,284.9656788029665 L673.0483355807949,222.42612193322887 M673.0483355807949,222.42612193322887 L713.6376915974199,244.932400217174 M633.5841918933363,288.2776150715789 L633.4472306115729,335.9644098779835 M602.189491145744,270.7188807994695 L633.5841918933363,288.2776150715789 M713.9516186221614,197.46717227919402 L673.721035136318,220.01811322611238 M673.721035136318,220.01811322611238 L671.6279642546566,220.14965398819072 M671.6279642546566,220.14965398819072 L669.64232008692,220.53769918017275 M669.64232008692,220.53769918017275 L667.8635472930818,221.16284788687975 M667.8635472930818,221.16284788687975 L666.3807728628168,221.99383048246006 M666.3807728628168,221.99383048246006 L665.2683461450424,222.98906957651755 M665.2683461450424,222.98906957651755 L664.5821235849246,224.09873988437704 M664.5821235849246,224.09873988437704 L664.3566380890286,225.2672532215895 M439.60926191734535,328.2775211940067 L633.5841918933363,288.2776150715789 M511.53742765850166,220.01811104892622 L439.60926191734535,328.2775211940067 M511.53742765850166,220.01811104892622 L542.6205223763545,237.40256726316312 M561.4766901550843,237.40256726316312 L561.2013432752686,238.66258068720464 M561.2013432752686,238.66258068720464 L560.3938807270843,239.8496534790927 M560.3938807270843,239.8496534790927 L559.1010760579247,240.89472177687495 M559.1010760579247,240.89472177687495 L557.397992667185,241.7369458049196 M557.397992667185,241.7369458049196 L555.3836318248948,242.32726813543775 M555.3836318248948,242.32726813543775 L553.1751757943832,242.6312900977453 M553.1751757943832,242.6312900977453 L550.9011461414316,242.63128965353138 M550.9011461414316,242.63128965353138 L548.6939051300157,242.32726881880293 M548.6939051300157,242.32726881880293 L546.6819015773362,241.73694532661943 M546.6819015773362,241.73694532661943 L544.9821837990165,240.89472136697137 M544.9821837990165,240.89472136697137 L543.6935547546492,239.84965334248633 M543.6935547546492,239.84965334248633 L542.890833194561,238.6625808237791 M542.890833194561,238.6625808237791 L542.6205223763545,237.40256726316312 M673.2715770905937,175.0162297582379 L561.4766901550843,237.40256726316312 M673.2715770905937,175.0162297582379 L713.9516186221614,197.46717227919402 M673.721035136318,220.01811322611238 L673.4958028472506,267.5387006629858 M713.9516186221614,197.46717227919402 L713.6376915974199,244.932400217174 M673.2715770905937,175.0162297582379 L673.0483355807949,222.42612193322887 M561.4766901550843,237.40256726316312 L561.5009059067067,284.9656788029665 M542.6205223763545,237.40256726316312 L542.6867081066671,284.9656788029665 M511.53742765850166,220.01811104892622 L511.6725670405629,267.5386984804657 M439.60926191734535,328.2775211940067 L439.90736487714827,376.0607627534859" stroke="black"  stroke-width="4"  fill="red"/>
<path d="M483.9950990919351,372.5058624069193 L483.79491457816994,324.399845335186 M633.5841918933363,288.2776150715789 L633.7217685623871,240.3765564461031 M483.9950990919351,372.5058624069193 L633.5841918933363,288.2776150715789 M483.79491457816994,324.399845335186 L633.7217685623871,240.3765564461031 M602.1894911457441,270.7188807994695 L602.2564097151574,222.860941154851 M633.5841918933363,288.2776150715789 L602.1894911457441,270.7188807994695 M633.7217685623871,240.3765564461031 L602.2564097151574,222.860941154851 M602.225304648429,212.3000462528828 L599.9593231587432,212.45333000638874 M599.9593231587432,212.45333000638874 L597.8257375883954,212.9042967602776 M597.8257375883954,212.9042967602776 L595.948396338202,213.62681449332499 M595.948396338202,213.62681449332499 L594.4363321661849,214.57899750271363 M594.4363321661849,214.57899750271363 L593.3774445264493,215.70561989076194 M593.3774445264493,215.70561989076194 L592.8333856826209,216.9412983087935 M592.8333856826209,216.9412983087935 L592.8359556889885,218.21427363778315 M592.8359556889885,218.21427363778315 L593.3852033657399,219.45056306754572 M593.3852033657399,219.45056306754572 L594.4493920396022,220.5782685455012 M594.4493920396022,220.5782685455012 L595.9667843839175,221.53175678865804 M595.9667843839175,221.53175678865804 L597.8492217694795,222.25550407780537 M597.8492217694795,222.25550407780537 L599.987232516705,222.7073438607037 M599.987232516705,222.7073438607037 L602.2564097151574,222.860941154851 M602.1585250817325,260.13192213524974 L602.225304648429,212.3000462528828 M602.1894911457441,270.7188807994695 L599.9253934576907,270.56490478813896 M599.9253934576907,270.56490478813896 L597.7921701891543,270.11195086597786 M597.7921701891543,270.11195086597786 L595.9139493378777,269.38641878437977 M595.9139493378777,269.38641878437977 L594.3999572135467,268.4305788441018 M594.3999572135467,268.4305788441018 L593.3381549502254,267.3000914584387 M593.3381549502254,267.3000914584387 L592.7901416853715,266.0607516120999 M592.7901416853715,266.0607516120999 L592.7875831620954,264.784634641923 M592.7875831620954,264.784634641923 L593.3304307864686,263.5459059445747 M593.3304307864686,263.5459059445747 L594.386955700327,262.4165018944623 M594.386955700327,262.4165018944623 L595.8956434632391,261.46196748123646 M595.8956434632391,261.46196748123646 L597.768790953922,260.7376652324155 M597.768790953922,260.7376652324155 L599.8976088219686,260.28558453799303 M599.8976088219686,260.28558453799303 L602.1585250817325,260.13192213524974 M714.266943600668,149.79057612860728 L602.225304648429,212.3000462528828 M713.9516186221614,197.46717227919402 L714.266943600668,149.79057612860728 M602.1585250817325,260.13192213524974 L713.9516186221614,197.46717227919402 M673.2715770905937,175.0162297582379 L673.4958105116352,127.39568498059282 M713.9516186221614,197.46717227919402 L673.2715770905937,175.0162297582379 M714.266943600668,149.79057612860728 L673.4958105116352,127.39568498059282 M633.0399948925942,197.4671766142369 L633.1751341617739,149.79058045284853 M673.2715770905937,175.0162297582379 L633.0399948925942,197.4671766142369 M673.4958105116352,127.39568498059282 L633.1751341617739,149.79058045284853 M623.6754223748505,202.6930093664836 L623.789766368466,155.00339803745567 M633.0399948925942,197.4671766142369 L632.8114802520666,198.62956757959554 M632.8114802520666,198.62956757959554 L632.123365229136,199.733918684466 M632.123365229136,199.733918684466 L631.0100268114111,200.72479744086166 M631.0100268114111,200.72479744086166 L629.5272272119976,201.55243676462993 M629.5272272119976,201.55243676462993 L627.7493157007511,202.17524882124894 M627.7493157007511,202.17524882124894 L625.7655136108876,202.56192071849838 M625.7655136108876,202.56192071849838 L623.6754223748505,202.6930093664836 M633.1751341617739,149.79058045284853 L632.9461261201857,150.9500753959496 M632.9461261201857,150.9500753959496 L632.2564930744375,152.05167563027538 M632.2564930744375,152.05167563027538 L631.1406875670828,153.04008662418565 M631.1406875670828,153.04008662418565 L629.6545952192398,153.86566505997152 M629.6545952192398,153.86566505997152 L627.8727304004241,154.48692646302106 M627.8727304004241,154.48692646302106 L625.8845129862805,154.87263572503977 M625.8845129862805,154.87263572503977 L623.789766368466,155.00339803745567 M561.4766901550843,237.40256726316312 L561.4523661415922,189.6268143209432 M623.6754223748505,202.6930093664836 L561.4766901550843,237.40256726316312 M623.789766368466,155.00339803745567 L561.4523661415922,189.6268143209432 M542.5540407481064,189.6268143209432 L542.8249477297538,190.88371074287576 M542.8249477297538,190.88371074287576 L543.6294566955002,192.06784720847924 M543.6294566955002,192.06784720847924 L544.9209611776174,193.11033091928823 M544.9209611776174,193.11033091928823 L546.6244756365859,193.95047252024534 M546.6244756365859,193.95047252024534 L548.6409763629188,194.53933665118186 M548.6409763629188,194.53933665118186 L550.8531531642847,194.842605964043 M550.8531531642847,194.842605964043 L553.1322695922297,194.84260640715885 M553.1322695922297,194.84260640715885 L555.34566685348,194.539335969506 M555.34566685348,194.539335969506 L557.3645354291009,193.95047299736297 M557.3645354291009,193.95047299736297 L559.0714305705258,193.11033132817823 M559.0714305705258,193.11033132817823 L560.3671293739679,192.06784734474783 M560.3671293739679,192.06784734474783 L561.1764005579766,190.88371060663914 M561.1764005579766,190.88371060663914 L561.4523661415922,189.6268143209432 M542.6205223763546,237.40256726316312 L542.5540407481064,189.6268143209432 M561.4766901550843,237.40256726316312 L561.2013432752686,238.66258068720464 M561.2013432752686,238.66258068720464 L560.3938807270843,239.8496534790927 M560.3938807270843,239.8496534790927 L559.1010760579247,240.89472177687495 M559.1010760579247,240.89472177687495 L557.397992667185,241.7369458049196 M557.397992667185,241.7369458049196 L555.3836318248948,242.32726813543775 M555.3836318248948,242.32726813543775 L553.1751757943832,242.6312900977453 M553.1751757943832,242.6312900977453 L550.9011461414316,242.63128965353138 M550.9011461414316,242.63128965353138 L548.6939051300157,242.32726881880293 M548.6939051300157,242.32726881880293 L546.6819015773362,241.73694532661943 M546.6819015773362,241.73694532661943 L544.9821837990165,240.89472136697137 M544.9821837990165,240.89472136697137 L543.6935547546492,239.84965334248633 M543.6935547546492,239.84965334248633 L542.890833194561,238.6625808237791 M542.890833194561,238.6625808237791 L542.6205223763546,237.40256726316312 M511.5374276585017,220.01811104892622 L511.4016851415824,172.28543649431788 M542.6205223763546,237.40256726316312 L511.5374276585017,220.01811104892622 M542.5540407481064,189.6268143209432 L511.4016851415824,172.28543649431788 M361.95655053410275,303.1201103256092 L361.48310240692444,255.18270849008343 M511.5374276585017,220.01811104892622 L361.95655053410275,303.1201103256092 M511.4016851415824,172.28543649431788 L361.48310240692444,255.18270849008343 M483.79491457816994,324.399845335186 L488.32258937328487,332.6258914838385 M488.32258937328487,332.6258914838385 L491.74841944502236,341.036407513005 M491.74841944502236,341.036407513005 L494.05058000060274,349.58492882965925 M494.05058000060274,349.58492882965925 L495.21340003449063,358.2239569196123 M495.21340003449063,358.2239569196123 L495.22745196013113,366.9052759640183 M495.22745196013113,366.9052759640183 L494.089781126427,375.58017310802177 M494.089781126427,375.58017310802177 L491.8038813487624,384.1997379987878 M491.8038813487624,384.1997379987878 L488.3797902533755,392.7151110325476 M488.3797902533755,392.7151110325476 L483.83410231641545,401.0778022483048 M483.83410231641545,401.0778022483048 L478.1898985710549,409.2399358206197 M478.1898985710549,409.2399358206197 L471.47670175501213,417.15459207176065 M471.47670175501213,417.15459207176065 L463.730377073911,424.7760375989726 M463.730377073911,424.7760375989726 L454.9929027722331,432.0600564588602 M454.9929027722331,432.0600564588602 L445.31228371619795,438.96419046346307 M445.31228371619795,438.96419046346307 L434.7422121184755,445.4480471943821 M434.7422121184755,445.4480471943821 L423.34179645610016,451.473565306116 M423.34179645610016,451.473565306116 L411.1752623914492,457.00521734203863 M411.1752623914492,457.00521734203863 L398.3116068476628,462.0103232317575 M398.3116068476628,462.0103232317575 L384.8241616124199,466.4591521477449 M384.8241616124199,466.4591521477449 L370.7901884546253,470.32527074284786 M370.7901884546253,470.32527074284786 L356.29030465297694,473.5856498088956 M356.29030465297694,473.5856498088956 L341.4081381892453,476.22083134931376 M341.4081381892453,476.22083134931376 L326.22982191060566,478.2150033669666 M326.22982191060566,478.2150033669666 L310.843184102747,479.5562719315288 M310.843184102747,479.5562719315288 L295.3375937556822,480.2365628617975 M295.3375937556822,480.2365628617975 L279.8029870242316,480.25183007166635 M279.8029870242316,480.25183007166635 L264.32968939552404,479.6019339643766 M264.32968939552404,479.6019339643766 L249.00751118373807,478.2908030372507 M249.00751118373807,478.2908030372507 L233.92528708191688,476.32632058281337 M233.92528708191688,476.32632058281337 L219.17047222844607,473.7201973877123 M219.17047222844607,473.7201973877123 L204.82829638761984,470.4880657512289 M204.82829638761984,470.4880657512289 L190.98148094983225,466.6492146006032 M190.98148094983225,466.6492146006032 L177.7095973836699,462.22651837787237 M177.7095973836699,462.22651837787237 L165.08858299990038,457.2462965364241 M165.08858299990038,457.2462965364241 L153.1903583578758,451.7380715355511 M153.1903583578758,451.7380715355511 L142.08231210285328,445.7344274470269 M142.08231210285328,445.7344274470269 L131.82697847072637,439.2707462673621 M131.82697847072637,439.2707462673621 L122.48163317641382,432.3850010373595 M122.48163317641382,432.3850010373595 L114.09803416245671,425.11747623003845 M114.09803416245671,425.11747623003845 L106.7220725501341,417.5105424323317 M106.7220725501341,417.5105424323317 L100.39365090088467,409.60833447146376 M100.39365090088467,409.60833447146376 L95.14638872540172,401.4565132462843 M95.14638872540172,401.4565132462843 L91.00751085725085,393.1019830993331 M91.00751085725085,393.1019830993331 L87.99786029076199,384.59253314662703 M87.99786029076199,384.59253314662703 L86.1315628603063,375.9766877826745 M86.1315628603063,375.9766877826745 L85.41632361907818,367.30325789360563 M85.41632361907818,367.30325789360563 L85.85331919053937,358.62114632944827 M85.85331919053937,358.62114632944827 L87.43710591397587,349.97913056876683 M87.43710591397587,349.97913056876683 L90.15600190190293,341.4254096758325 M90.15600190190293,341.4254096758325 L93.99194578654237,333.00755931567164 M93.99194578654237,333.00755931567164 L98.92093007810945,324.7720530252084 M98.92093007810945,324.7720530252084 L104.91286678447813,316.7642391309199 M104.91286678447813,316.7642391309199 L111.9320913957987,309.0279602495703 M111.9320913957987,309.0279602495703 L119.93750063108598,301.60533997119046 M119.93750063108598,301.60533997119046 L128.8828279205918,294.53665863646273 M128.8828279205918,294.53665863646273 L138.7168034969863,287.8600989126098 M138.7168034969863,287.8600989126098 L149.38371115884155,281.6115835009937 M149.38371115884155,281.6115835009937 L160.82350635858273,275.8245880145023 M160.82350635858273,275.8245880145023 L172.97228472281625,270.5299991878612 M172.97228472281625,270.5299991878612 L185.7625478716924,265.75599061589185 M185.7625478716924,265.75599061589185 L199.12356808847215,261.527906183248 M199.12356808847215,261.527906183248 L212.9818222989289,257.86809727993926 M212.9818222989289,257.86809727993926 L227.2612999972246,254.7958897641901 M227.2612999972246,254.7958897641901 L241.88397073060943,252.3274630971436 M241.88397073060943,252.3274630971436 L256.77007502710944,250.4757912961452 M256.77007502710944,250.4757912961452 L271.83861278776214,249.2506051960205 M271.83861278776214,249.2506051960205 L287.00766888726423,248.65833141319868 M287.00766888726423,248.65833141319868 L302.19487543517494,248.70206938536265 M302.19487543517494,248.70206938536265 L317.3177601603752,249.38160618632745 M317.3177601603752,249.38160618632745 L332.29419850366315,250.693358756595 M332.29419850366315,250.693358756595 L347.04273690596847,252.63045080881537 M347.04273690596847,252.63045080881537 L361.48310240692444,255.18270849008343 M361.95655053410275,303.1201103256092 L347.5484797525128,300.56159477940156 M347.5484797525128,300.56159477940156 L332.8329438969756,298.61975126119387 M332.8329438969756,298.61975126119387 L317.8900419672266,297.3047801695716 M317.8900419672266,297.3047801695716 L302.80105115226434,296.6235757553455 M302.80105115226434,296.6235757553455 L287.64791821329834,296.5797304412788 M287.64791821329834,296.5797304412788 L272.51293674818174,297.1734577129412 M272.51293674818174,297.1734577129412 L257.4782959460594,298.4016500289637 M257.4782959460594,298.4016500289637 L242.62573281435,300.25786398283185 M242.62573281435,300.25786398283185 L228.03607079140426,302.73234334637317 M228.03607079140426,302.73234334637317 L213.78889472396963,305.81208029536947 M213.78889472396963,305.81208029536947 L199.9620634283282,309.4808532932826 M199.9620634283282,309.4808532932826 L186.63141928859707,313.7192863466912 M186.63141928859707,313.7192863466912 L173.87032171710547,318.5049702407324 M173.87032171710547,318.5049702407324 L161.7493398277117,323.81249574008996 M161.7493398277117,323.81249574008996 L150.33581937201004,329.6136168617511 M150.33581937201004,329.6136168617511 L139.6935188500167,335.8773678253461 M139.6935188500167,335.8773678253461 L129.8823442741621,342.5701877169661 M129.8823442741621,342.5701877169661 L120.95788171634621,349.6560627248831 M120.95788171634621,349.6560627248831 L112.97127952854134,357.0967138174332 M112.97127952854134,357.0967138174332 L105.9686929005864,364.8517595268971 M105.9686929005864,364.8517595268971 L99.99112423102184,372.8789710831094 M99.99112423102184,372.8789710831094 L95.0741483774035,381.1343970221242 M95.0741483774035,381.1343970221242 L91.24777536181796,389.5725770966319 M91.24777536181796,389.5725770966319 L88.53594770498773,398.14692376034793 M88.53594770498773,398.14692376034793 L86.95667466014606,406.8097453593732 M86.95667466014606,406.8097453593732 L86.52160005542726,415.5127260551262 M86.52160005542726,415.5127260551262 L87.23614340983949,424.20697094266893 M87.23614340983949,424.20697094266893 L89.09911897488684,432.8434601925926 M89.09911897488684,432.8434601925926 L92.10282758968378,441.37326690110945 M92.10282758968378,441.37326690110945 L96.23316428786552,449.74775206261216 M96.23316428786552,449.74775206261216 L101.46932281689084,457.9190143926529 M101.46932281689084,457.9190143926529 L107.7841303766703,465.84004012739064 M107.7841303766703,465.84004012739064 L115.1440349983153,473.46506248334936 M115.1440349983153,473.46506248334936 L123.50921707688502,480.749844879461 M123.50921707688502,480.749844879461 L132.83388332408214,487.6519195827766 M132.83388332408214,487.6519195827766 L143.0663883456176,494.1309102483057 M143.0663883456176,494.1309102483057 L154.1495829720913,500.14875766696304 M154.1495829720913,500.14875766696304 L166.0210729729482,505.66999993125734 M166.0210729729482,505.66999993125734 L178.61362226157937,510.6619796950678 M178.61362226157937,510.6619796950678 L191.85547464483153,515.0951083755913 M191.85547464483153,515.0951083755913 L205.6708677572342,518.9430077756093 M205.6708677572342,518.9430077756093 L219.980414709105,522.1827525613045 M219.980414709105,522.1827525613045 L234.70158710809756,524.7950110071727 M234.70158710809756,524.7950110071727 L249.7493550023122,526.7641161985032 M249.7493550023122,526.7641161985032 L265.03646909075945,528.0783314743858 M265.03646909075945,528.0783314743858 L280.4743044187327,528.7297561376545 M280.4743044187327,528.7297561376545 L295.9732632050175,528.7144530214412 M295.9732632050175,528.7144530214412 L311.44323404379253,528.0325620373951 M311.44323404379253,528.0325620373951 L326.7944941247643,526.6881381912799 M326.7944941247643,526.6881381912799 L341.9378864675176,524.6892734926272 M341.9378864675176,524.6892734926272 L356.7857910254491,522.0478881534563 M356.7857910254491,522.0478881534563 L371.25227889119157,518.7798291883554 M371.25227889119157,518.7798291883554 L385.2539196903593,514.9045977725024 M385.2539196903593,514.9045977725024 L398.7102861137198,510.4452743563597 M398.7102861137198,510.4452743563597 L411.5442978067389,505.4283512892117 M411.5442978067389,505.4283512892117 L423.6827944262859,499.8836260081443 M423.6827944262859,499.8836260081443 L435.0569395184108,493.84385208355826 M435.0569395184108,493.84385208355826 L445.6026558764286,487.34463723064954 M445.6026558764286,487.34463723064954 L455.26097065833187,480.4241291805112 M455.26097065833187,480.4241291805112 L463.97831380017203,473.1228124921767 M463.97831380017203,473.1228124921767 L471.7067885243266,465.4832427247051 M471.7067885243266,465.4832427247051 L478.40450991316624,457.54973778934175 M478.40450991316624,457.54973778934175 L484.0356912293355,449.36813717094566 M484.0356912293355,449.36813717094566 L488.5708729427809,440.9854700329301 M488.5708729427809,440.9854700329301 L491.98702188425887,432.4497246067314 M491.98702188425887,432.4497246067314 L494.2675761521032,423.8095054144224 M494.2675761521032,423.8095054144224 L495.4025154153278,415.11378822769177 M495.4025154153278,415.11378822769177 L495.3883480807011,406.41160043118373 M495.3883480807011,406.41160043118373 L494.2280163456316,397.75177218492684 M494.2280163456316,397.75177218492684 L491.93092079078053,389.18263615578576 M491.93092079078053,389.18263615578576 L488.5126915592105,380.7518066928277 M488.5126915592105,380.7518066928277 L483.9950990919351,372.5058624069193 M312.2235248292106,399.5230579987776 L315.825833975773,402.0572103760258 M315.825833975773,402.0572103760258 L318.4789418827189,404.94992903543664 M318.4789418827189,404.94992903543664 L320.0803159395105,408.09053458550693 M320.0803159395105,408.09053458550693 L320.5675012063519,411.3586876488669 M320.5675012063519,411.3586876488669 L319.9207281936468,414.6289158001772 M319.9207281936468,414.6289158001772 L318.16384466042103,417.77541126254977 M318.16384466042103,417.77541126254977 L315.36347002492295,420.6769350820298 M315.36347002492295,420.6769350820298 L311.62665567750935,423.2214739026904 M311.62665567750935,423.2214739026904 L307.0967670351702,425.31067461820555 M307.0967670351702,425.31067461820555 L301.94815909933504,426.8636284996631 M301.94815909933504,426.8636284996631 L296.37927625648194,427.82016335173853 M296.37927625648194,427.82016335173853 L290.6050147766903,428.143185947406 M290.6050147766903,428.143185947406 L284.84834232378137,427.82015541634354 M284.84834232378137,427.82015541634354 L279.3314916170818,426.8636236826346 M279.3314916170818,426.8636236826346 L274.26736696276515,425.31067376839667 M274.26736696276515,425.31067376839667 L269.8511838640014,423.2214739026904 M269.8511838640014,423.2214739026904 L266.25278107698637,420.6769381952076 M266.25278107698637,420.6769381952076 L263.61027825783424,417.7754092825473 M263.61027825783424,417.7754092825473 L262.02459336918605,414.6289078849836 M262.02459336918605,414.6289078849836 L261.5557468158638,411.3586966890832 M261.5557468158638,411.3586966890832 L262.22074611644075,408.09054474932253 M262.22074611644075,408.09054474932253 L263.9929823624451,404.94993608935386 M263.9929823624451,404.94993608935386 L266.8034827073027,402.0572225019715 M266.8034827073027,402.0572225019715 L270.5436865295818,399.5230579987776 M270.5436865295818,399.5230579987776 L275.06962031655826,397.4442677749992 M275.06962031655826,397.4442677749992 L280.2076232178552,395.90012415302976 M280.2076232178552,395.90012415302976 L285.76083304267894,394.94947612455985 M285.76083304267894,394.94947612455985 L291.5167557195364,394.6285116986784 M291.5167557195364,394.6285116986784 L297.25520188511393,394.9494659865697 M297.25520188511393,394.9494659865697 L302.7566836924633,395.9001199280891 M302.7566836924633,395.9001199280891 L307.8106826209234,397.4442596043374 M307.8106826209234,397.4442596043374 L312.2235248292106,399.5230579987776 M312.2235248292106,399.5230579987776 L311.63263829192135,351.3519574916428 M311.63263829192135,351.3519574916428 L307.20989361710025,349.27815547261577 M307.20989361710025,349.27815547261577 L302.1445087058248,347.7377283511736 M302.1445087058248,347.7377283511736 L296.6305924286884,346.789360574816 M296.6305924286884,346.789360574816 L290.879137146793,346.4691782183315 M290.879137146793,346.4691782183315 L285.1101259365298,346.78937068842396 M285.1101259365298,346.78937068842396 L279.5442464827389,347.73773256595473 M279.5442464827389,347.73773256595473 L274.39447562385897,349.2781636236358 M274.39447562385897,349.2781636236358 L269.85812504435177,351.3519574916428 M269.85812504435177,351.3519574916428 L266.1092547421425,353.8800337153441 M266.1092547421425,353.8800337153441 L263.2921722099221,356.7658010604107 M263.2921722099221,356.7658010604107 L261.5156935465695,359.898872367467 M261.5156935465695,359.898872367467 L260.84895856169595,363.15918545005917 M260.84895856169595,363.15918545005917 L261.3186476152499,366.42155754066914 M261.3186476152499,366.42155754066914 L262.9077254993988,369.56052081049785 M262.9077254993988,369.56052081049785 L265.55604556878245,372.455102330362 M265.55604556878245,372.455102330362 L269.1624691671855,374.9935484664994 M269.1624691671855,374.9935484664994 L273.58856933508315,377.0777505925 M273.58856933508315,377.0777505925 L278.6641255306945,378.6269868137599 M278.6641255306945,378.6269868137599 L284.19348028517925,379.58123164349803 M284.19348028517925,379.58123164349803 L289.9632447531059,379.90348995443037 M289.9632447531059,379.90348995443037 L295.75067843426393,379.58123955992255 M295.75067843426393,379.58123955992255 L301.3323026368083,378.62699161927077 M301.3323026368083,378.62699161927077 L306.49272736620946,377.0777514402765 M306.49272736620946,377.0777514402765 L311.0330513821261,374.9935484664994 M311.0330513821261,374.9935484664994 L314.7785174942841,372.4550992246365 M314.7785174942841,372.4550992246365 L317.58542875865305,369.56052278575805 M317.58542875865305,369.56052278575805 L319.3464851687304,366.42156543689464 M319.3464851687304,366.42156543689464 L319.9949109672295,363.1591764315198 M319.9949109672295,363.1591764315198 L319.5067995328095,359.8988622280373 M319.5067995328095,359.8988622280373 L317.90196071262505,356.7657940234277 M317.90196071262505,356.7657940234277 L315.2429867191417,353.8800216185238 M315.2429867191417,353.8800216185238 L311.63263829192135,351.3519574916428" stroke="black"  stroke-width="4"  fill="red"/>
<path d="M602.2923842125319,164.25329268518578 L602.225304648429,212.3000462528828 M602.2564097151574,222.86094115485105 L599.987232516705,222.7073438607037 M599.987232516705,222.7073438607037 L597.8492217694795,222.25550407780537 M597.8492217694795,222.25550407780537 L595.9667843839175,221.53175678865804 M595.9667843839175,221.53175678865804 L594.4493920396022,220.5782685455012 M594.4493920396022,220.5782685455012 L593.3852033657399,219.45056306754572 M593.3852033657399,219.45056306754572 L592.8359556889885,218.21427363778315 M592.8359556889885,218.21427363778315 L592.8333856826209,216.9412983087935 M592.8333856826209,216.9412983087935 L593.3774445264493,215.70561989076194 M593.3774445264493,215.70561989076194 L594.4363321661849,214.57899750271363 M594.4363321661849,214.57899750271363 L595.948396338202,213.62681449332499 M595.948396338202,213.62681449332499 L597.8257375883954,212.9042967602776 M597.8257375883954,212.9042967602776 L599.9593231587432,212.45333000638874 M599.9593231587432,212.45333000638874 L602.225304648429,212.3000462528828 M602.3236292201389,174.78778238070618 L602.2564097151574,222.86094115485105 M602.2923842125319,164.25329268518578 L600.0213147423215,164.40619283380997 M600.0213147423215,164.40619283380997 L597.8829400625445,164.85603106743795 M597.8829400625445,164.85603106743795 L596.0013862287855,165.57674092566572 M596.0013862287855,165.57674092566572 L594.4859304985224,166.52654174690556 M594.4859304985224,166.52654174690556 L593.4246695398317,167.65034604865764 M593.4246695398317,167.65034604865764 L592.8793940586149,168.88293423699452 M592.8793940586149,168.88293423699452 L592.8819756255718,170.1527267682404 M592.8819756255718,170.1527267682404 L593.4324632886957,171.38592581063065 M593.4324632886957,171.38592581063065 L594.4990491260194,172.51081292045563 M594.4990491260194,172.51081292045563 L596.0198570001656,173.46191863856407 M596.0198570001656,173.46191863856407 L597.9065298977832,174.18385773512838 M597.9065298977832,174.18385773512838 L600.0493496643032,174.63456876986493 M600.0493496643032,174.63456876986493 L602.3236292201389,174.78778238070618 M664.7684446714677,129.56210815693964 L664.5620815038626,177.5215574077721 M664.7684446714677,129.56210815693964 L602.2923842125319,164.25329268518578 M664.5620815038626,177.5215574077721 L602.225304648429,212.3000462528828 M673.9472726500849,172.28543866610065 L671.849533090201,172.4166529745479 M671.849533090201,172.4166529745479 L669.859465396499,172.80373517268785 M669.859465396499,172.80373517268785 L668.0767354888907,173.42733261565232 M668.0767354888907,173.42733261565232 L666.5906684789679,174.25625345022067 M666.5906684789679,174.25625345022067 L665.4757788158389,175.24902364318422 M665.4757788158389,175.24902364318422 L664.7880467724489,176.35594169151477 M664.7880467724489,176.35594169151477 L664.5620815038626,177.5215574077721 M714.266943600668,149.79057612860728 L673.9472726500849,172.28543866610065 M673.4958105116352,127.39568498059282 L714.266943600668,149.79057612860728 M561.4523661415922,189.6268143209432 L673.4958105116352,127.39568498059282 M542.5540407481064,189.6268143209432 L542.8249477297538,190.88371074287576 M542.8249477297538,190.88371074287576 L543.6294566955002,192.06784720847924 M543.6294566955002,192.06784720847924 L544.9209611776174,193.11033091928823 M544.9209611776174,193.11033091928823 L546.6244756365859,193.95047252024534 M546.6244756365859,193.95047252024534 L548.6409763629188,194.53933665118186 M548.6409763629188,194.53933665118186 L550.8531531642847,194.842605964043 M550.8531531642847,194.842605964043 L553.1322695922297,194.84260640715885 M553.1322695922297,194.84260640715885 L555.34566685348,194.539335969506 M555.34566685348,194.539335969506 L557.3645354291009,193.95047299736297 M557.3645354291009,193.95047299736297 L559.0714305705258,193.11033132817823 M559.0714305705258,193.11033132817823 L560.3671293739679,192.06784734474783 M560.3671293739679,192.06784734474783 L561.1764005579766,190.88371060663914 M561.1764005579766,190.88371060663914 L561.4523661415922,189.6268143209432 M511.4016851415824,172.28543649431788 L542.5540407481064,189.6268143209432 M511.4016851415824,172.28543649431788 L439.30981428037035,280.27873989558583 M439.30981428037035,280.27873989558583 L633.7217685623871,240.3765564461031 M602.2564097151574,222.86094115485105 L633.7217685623871,240.3765564461031 M633.8599649890833,192.2597123424402 L633.7217685623871,240.3765564461031 M602.3236292201389,174.78778238070618 L633.8599649890833,192.2597123424402 M674.1745224842074,124.33917990743407 L672.0720933685805,124.47006352130848 M672.0720933685805,124.47006352130848 L670.077582392496,124.85617021480408 M670.077582392496,124.85617021480408 L668.2908777227536,125.47819623878928 M668.2908777227536,125.47819623878928 L666.8015034757877,126.30502852072561 M666.8015034757877,126.30502852072561 L665.6841399358879,127.29529772497011 M665.6841399358879,127.29529772497011 L664.9948917541001,128.39942773646192 M664.9948917541001,128.39942773646192 L664.7684446714677,129.56210815693964 M714.5836763809218,101.90112276740984 L674.1745224842074,124.33917990743407 M673.7210428174809,79.56300662211765 L714.5836763809218,101.90112276740984 M561.4279331008481,141.6369166588587 L673.7210428174809,79.56300662211765 M561.4279331008481,141.6369166588587 L561.1513460263074,142.89065517711947 M561.1513460263074,142.89065517711947 L560.3402580845759,144.07181758397513 M560.3402580845759,144.07181758397513 L559.0416521576511,145.11168355427034 M559.0416521576511,145.11168355427034 L557.3309281618024,145.94971570644148 M557.3309281618024,145.94971570644148 L555.307531629313,146.53710028471556 M555.307531629313,146.53710028471556 L553.0891709727503,146.83960939420962 M553.0891709727503,146.83960939420962 L550.8049449576401,146.83960895220605 M550.8049449576401,146.83960895220605 L548.587810238386,146.53710096467992 M548.587810238386,146.53710096467992 L546.5667921859729,145.94971523052175 M546.5667921859729,145.94971523052175 L544.859464044082,145.1116831464071 M544.859464044082,145.1116831464071 L543.5650712608876,144.07181744804885 M543.5650712608876,144.07181744804885 L542.7587669105096,142.89065531301395 M542.7587669105096,142.89065531301395 L542.4872611300041,141.6369166588587 M511.26533523241113,124.33917774112467 L542.4872611300041,141.6369166588587 M511.26533523241113,124.33917774112467 L439.0090123826688,232.0628827000623 M439.0090123826688,232.0628827000623 L633.8599649890833,192.2597123424402 M674.1745224842074,124.33917990743407 L673.9472726500849,172.28543866610065 M714.5836763809218,101.90112276740984 L714.266943600668,149.79057612860728 M673.7210428174809,79.56300662211765 L673.4958105116352,127.39568498059282 M561.4279331008481,141.6369166588587 L561.4523661415922,189.6268143209432 M542.4872611300041,141.6369166588587 L542.5540407481064,189.6268143209432 M511.26533523241113,124.33917774112467 L511.4016851415824,172.28543649431788 M439.0090123826688,232.0628827000623 L439.30981428037035,280.27873989558583" stroke="black"  stroke-width="4"  fill="red"/>
<path d="M561.5250140990984,332.31752902132257 L561.5009059067067,284.9656788029665 M542.6867081066671,284.9656788029665 L542.9564253785803,286.22876932609006 M542.9564253785803,286.22876932609006 L543.7573674561766,287.41874004719773 M543.7573674561766,287.41874004719773 L545.0431338359779,288.4663590623445 M545.0431338359779,288.4663590623445 L546.7390718166628,289.3106385253931 M546.7390718166628,289.3106385253931 L548.7465982066763,289.90240255558865 M548.7465982066763,289.90240255558865 L550.948925400713,290.2071652180566 M550.948925400713,290.2071652180566 L553.2178909306247,290.2071656633544 M553.2178909306247,290.2071656633544 L555.4214277392701,289.902401870556 M555.4214277392701,289.902401870556 L557.4313009296789,289.3106390048604 M557.4313009296789,289.3106390048604 L559.1305895532865,288.46635947324864 M559.1305895532865,288.46635947324864 L560.4205129860719,287.41874018413785 M560.4205129860719,287.41874018413785 L561.226174963219,286.228769189182 M561.226174963219,286.228769189182 L561.5009059067067,284.9656788029665 M542.7525998594749,332.3175290213227 L542.6867081066671,284.9656788029665 M561.5250140990984,332.31752902132257 L561.2508963425219,333.5836566336882 M561.2508963425219,333.5836566336882 L560.4470269240683,334.77648839573055 M560.4470269240683,334.77648839573055 L559.1599719135718,335.82662571831565 M559.1599719135718,335.82662571831565 L557.4644611838931,336.67293419252667 M557.4644611838931,336.67293419252667 L555.4590556943738,337.26611897651514 M555.4590556943738,337.26611897651514 L553.2604162416751,337.5716150118999 M553.2604162416751,337.5716150118999 L550.9964923299444,337.57161456553223 M550.9964923299444,337.57161456553223 L548.7990571233508,337.26611966319365 M548.7990571233508,337.26611966319365 L546.7959880148555,336.67293371190726 M546.7959880148555,336.67293371190726 L545.1038130582606,335.82662530642415 M545.1038130582606,335.82662530642415 L543.820896652572,334.7764882584614 M543.820896652572,334.7764882584614 L543.0217261855041,333.5836567709255 M543.0217261855041,333.5836567709255 L542.7525998594749,332.3175290213227 M623.448252680148,297.43899560978946 L623.561585572069,250.17108589619613 M623.448252680148,297.43899560978946 L561.5250140990984,332.31752902132257 M623.561585572069,250.17108589619613 L561.5009059067067,284.9656788029665 M632.9054547464244,244.93240456288038 L632.677431387907,246.09765449688325 M632.677431387907,246.09765449688325 L631.9908277212935,247.2047212685472 M631.9908277212935,247.2047212685472 L630.8799455097885,248.19803620064047 M630.8799455097885,248.19803620064047 L629.4004241021871,249.0277100291107 M629.4004241021871,249.0277100291107 L627.6264483985428,249.6520528853517 M627.6264483985428,249.6520528853517 L625.6470420691941,250.039675091496 M625.6470420691941,250.039675091496 L623.561585572069,250.17108589619613 M673.0483355807949,222.42612193322887 L632.9054547464244,244.93240456288038 M713.6376915974199,244.932400217174 L673.0483355807949,222.42612193322887 M602.0920434021932,307.7504318304343 L713.6376915974199,244.932400217174 M602.1228713930698,318.3631166307425 L599.8638305293191,318.2087668127877 M599.8638305293191,318.2087668127877 L597.7353733505994,317.75471319681617 M597.7353733505994,317.75471319681617 L595.8613501895575,317.0274194611119 M595.8613501895575,317.0274194611119 L594.3507430832766,316.06925830678625 M594.3507430832766,316.06925830678625 L593.2913165534186,314.93602506602633 M593.2913165534186,314.93602506602633 L592.7445321653834,313.69367432689 M592.7445321653834,313.69367432689 L592.7419850484093,312.4144564118692 M592.7419850484093,312.4144564118692 L593.2836268332965,311.1727169389204 M593.2836268332965,311.1727169389204 L594.3377995399746,310.0405672437915 M594.3377995399746,310.0405672437915 L595.8431259364794,309.0837118669444 M595.8431259364794,309.0837118669444 L597.7120983593938,308.35764820032136 M597.7120983593938,308.35764820032136 L599.8361697817544,307.90446798215225 M599.8361697817544,307.90446798215225 L602.0920434021932,307.7504318304343 M633.4472306115729,335.9644098779835 L602.1228713930698,318.3631166307425 M633.4472306115729,335.9644098779835 L439.90736487714827,376.0607627534859 M439.90736487714827,376.0607627534859 L511.6725670405629,267.5386984804657 M542.6867081066671,284.9656788029665 L511.6725670405629,267.5386984804657 M511.80710719520033,314.84857280416696 L511.6725670405629,267.5386984804657 M542.7525998594749,332.3175290213227 L511.80710719520033,314.84857280416696 M632.7715098508676,292.1876304650606 L632.5439756685413,293.3557027181313 M632.5439756685413,293.3557027181313 L631.8588767344015,294.4654503367545 M631.8588767344015,294.4654503367545 L630.7504399156832,295.4611702022729 M630.7504399156832,295.4611702022729 L629.2741822370809,296.29285243995537 M629.2741822370809,296.29285243995537 L627.5041249540011,296.91870645845756 M627.5041249540011,296.91870645845756 L625.5290949477762,297.3072667816376 M625.5290949477762,297.3072667816376 L623.448252680148,297.43899560978946 M672.82607958599,269.62671987957015 L632.7715098508676,292.1876304650606 M713.32515349085,292.18762610882743 L672.82607958599,269.62671987957015 M602.0258576719376,355.1569633697434 L713.32515349085,292.18762610882743 M602.0258576719376,355.1569633697434 L599.7750042471594,355.31136842399746 M599.7750042471594,355.31136842399746 L597.6556581520779,355.76563390748527 M597.6556581520779,355.76563390748527 L595.7908422266805,356.49343614767224 M595.7908422266805,356.49343614767224 L594.2888622516166,357.45258238234635 M594.2888622516166,357.45258238234635 L593.2370313017078,358.58744210118215 M593.2370313017078,358.58744210118215 L592.6965900111786,359.83215328012363 M592.6965900111786,359.83215328012363 L592.6991257979654,361.1144318909246 M592.6991257979654,361.1144318909246 L593.2446868080572,362.35975443353595 M593.2446868080572,362.35975443353595 L594.301748211853,363.4956978731375 M594.301748211853,363.4956978731375 L595.8089854028874,364.45615009360245 M595.8089854028874,364.45615009360245 L597.6788295949174,365.18518259950315 M597.6788295949174,365.18518259950315 L599.8025419333233,365.6403216226894 M599.8025419333233,365.6403216226894 L602.0565485110965,365.7950403907127 M633.3108807021667,383.4383387723398 L602.0565485110965,365.7950403907127 M633.3108807021667,383.4383387723398 L440.2041319687583,423.62987657470256 M440.2041319687583,423.62987657470256 L511.80710719520033,314.84857280416696 M632.7715098508676,292.1876304650606 L632.9054547464244,244.93240456288038 M672.82607958599,269.62671987957015 L673.0483355807949,222.42612193322887 M713.32515349085,292.18762610882743 L713.6376915974199,244.932400217174 M602.0258576719376,355.1569633697434 L602.0920434021932,307.7504318304343 M602.0565485110965,365.7950403907127 L602.1228713930698,318.3631166307425 M633.3108807021667,383.4383387723398 L633.4472306115729,335.9644098779835 M440.2041319687583,423.62987657470256 L439.90736487714827,376.0607627534859" stroke="black"  stroke-width="4"  fill="red"/></svg>